<!-- Generated by IcoMoon.io -->
<svg version="1.1" xmlns="http://www.w3.org/2000/svg" width="32" height="32" viewBox="0 0 32 32">
<title>chip-flavors</title>
<path d="M16.302 0h-0.605c-4.302 0-7.802 3.5-7.802 7.802v15.961c0 1.498 1.219 2.717 2.717 2.717h3.338v3.865c0 0.912 0.743 1.655 1.655 1.655h0.552c0.912 0 1.655-0.743 1.655-1.655v-3.866h3.575c1.498 0 2.717-1.219 2.717-2.717v-15.961c0.001-4.302-3.5-7.802-7.802-7.802zM16.709 30.345c0 0.305-0.247 0.552-0.552 0.552h-0.552c-0.305 0-0.552-0.247-0.552-0.552v-3.862h1.655v3.862zM23.001 23.763c0 0.889-0.724 1.614-1.614 1.614h-10.774c-0.889 0-1.614-0.724-1.614-1.614v-15.961c0-3.694 3.005-6.699 6.699-6.699h0.605c3.693 0 6.699 3.005 6.699 6.699v15.961z"></path>
<path d="M20.577 11.755c-0.305 0-0.552 0.247-0.552 0.552v2.721c0 0.53-0.43 0.96-0.96 0.96s-0.96-0.43-0.96-0.96v-2.721c0-0.305-0.247-0.552-0.552-0.552s-0.552 0.247-0.552 0.552v2.721c0 1.138 0.926 2.063 2.063 2.063s2.063-0.926 2.063-2.063v-2.721c0-0.305-0.247-0.552-0.552-0.552z"></path>
<path d="M15.327 19.34c-0.305 0-0.552 0.247-0.552 0.552v1.512c0 0.53-0.431 0.96-0.96 0.96s-0.96-0.43-0.96-0.96v-1.512c0-0.305-0.247-0.552-0.552-0.552s-0.552 0.247-0.552 0.552v1.512c0 1.138 0.926 2.063 2.063 2.063s2.064-0.926 2.064-2.063v-1.512c0-0.305-0.247-0.552-0.552-0.552z"></path>
<path d="M13.581 11.022c1.138 0 2.063-0.926 2.063-2.063v-1.512c0-0.305-0.247-0.552-0.552-0.552s-0.552 0.247-0.552 0.552v1.512c0 0.53-0.43 0.96-0.96 0.96s-0.96-0.43-0.96-0.96v-1.512c0-0.305-0.247-0.552-0.552-0.552s-0.552 0.247-0.552 0.552v1.512c-0.001 1.138 0.925 2.063 2.063 2.063z"></path>
</svg>
