<!-- Generated by IcoMoon.io -->
<svg version="1.1" xmlns="http://www.w3.org/2000/svg" width="32" height="32" viewBox="0 0 32 32">
<title>drinks</title>
<path d="M27.907 5.003c0.248-0.316 0.294-0.737 0.118-1.099s-0.535-0.586-0.937-0.586h-3.886c0.009-0.723-0.346-1.415-0.944-1.828l0.307-0.781c0.105-0.266-0.026-0.567-0.293-0.672s-0.567 0.026-0.672 0.293l-0.311 0.793c-0.961-0.116-1.919 0.424-2.289 1.366l-0.325 0.83h-13.762c-0.402 0-0.761 0.225-0.937 0.586s-0.131 0.783 0.118 1.099l11.388 14.494v8.114c0 1.848-1.504 3.352-3.352 3.352h-1.659c-0.286 0-0.518 0.232-0.518 0.518s0.232 0.518 0.518 0.518h11.058c0.286 0 0.518-0.232 0.518-0.518s-0.232-0.518-0.518-0.518h-1.659c-1.848 0-3.352-1.504-3.352-3.352v-8.114l11.388-14.494zM18.576 9.883c0.539 0 0.781 0.104 1.087 0.235 0.348 0.149 0.743 0.318 1.495 0.318 0.663 0 1.048-0.131 1.368-0.265l-6.527 8.307-6.527-8.306c0.32 0.133 0.705 0.264 1.365 0.264 0.751 0 1.145-0.169 1.493-0.318 0.305-0.131 0.547-0.235 1.085-0.235s0.779 0.103 1.085 0.235c0.348 0.149 0.742 0.318 1.494 0.318s1.146-0.169 1.495-0.318c0.306-0.131 0.547-0.235 1.086-0.235zM19.964 2.866c0.23-0.585 0.893-0.874 1.479-0.644 0.455 0.179 0.735 0.627 0.722 1.096h-2.377l0.177-0.452zM4.912 4.354l22.177-0.001c0.002 0.002 0.004 0.006 0.002 0.009l-3.526 4.488c-0.639 0.024-0.999 0.178-1.32 0.315-0.306 0.131-0.548 0.235-1.087 0.235s-0.781-0.104-1.087-0.235c-0.206-0.088-0.429-0.183-0.732-0.246l1.053-2.682c0.105-0.266-0.026-0.567-0.293-0.672s-0.567 0.026-0.672 0.293l-1.179 3.001c-0.546 0.041-0.874 0.18-1.167 0.306-0.306 0.131-0.547 0.235-1.086 0.235s-0.779-0.103-1.085-0.235c-0.348-0.149-0.742-0.318-1.494-0.318s-1.145 0.169-1.493 0.318c-0.305 0.131-0.547 0.235-1.085 0.235s-0.78-0.103-1.085-0.235c-0.32-0.137-0.68-0.291-1.319-0.315l-3.527-4.489c0-0.002 0.002-0.007 0.006-0.007zM17.042 30.963h-2.084c0.423-0.358 0.778-0.793 1.042-1.285 0.264 0.492 0.619 0.928 1.042 1.285z"></path>
<path d="M17.255 11.387l-1.738 4.423c-0.105 0.266 0.026 0.567 0.293 0.672 0.062 0.024 0.126 0.036 0.189 0.036 0.207 0 0.402-0.125 0.483-0.329l1.738-4.423c0.105-0.266-0.026-0.567-0.293-0.672s-0.567 0.026-0.672 0.293z"></path>
</svg>
