<!-- Generated by IcoMoon.io -->
<svg version="1.1" xmlns="http://www.w3.org/2000/svg" width="32" height="32" viewBox="0 0 32 32">
<title>fruit-sorbets</title>
<path d="M29.919 16.316c-0.131-0.192-0.349-0.307-0.582-0.307h-2.353c0.121-0.536 0.186-1.094 0.186-1.666 0-3.485-2.357-6.429-5.561-7.323 0.068-0.357 0.105-0.726 0.105-1.102-0-3.263-2.654-5.917-5.917-5.917s-5.917 2.654-5.917 5.917c0 0.409 0.042 0.808 0.121 1.194-3.050 0.989-5.262 3.857-5.262 7.232 0 0.572 0.065 1.129 0.186 1.666h-2.262c-0.233 0-0.45 0.115-0.582 0.307s-0.159 0.437-0.074 0.654c1.091 2.78 2.97 5.153 5.432 6.863 2.328 1.616 5.031 2.528 7.857 2.658v4.101h-5.194c-0.389 0-0.704 0.315-0.704 0.704s0.315 0.704 0.704 0.704h11.796c0.389 0 0.704-0.315 0.704-0.704s-0.315-0.704-0.704-0.704h-5.194v-4.101c2.826-0.13 5.529-1.042 7.857-2.658 2.462-1.71 4.341-4.083 5.432-6.863 0.085-0.217 0.057-0.461-0.074-0.654zM25.762 14.343c0 0.577-0.081 1.135-0.23 1.666h-11.93c-0.148-0.53-0.23-1.089-0.23-1.666 0-0.998 0.238-1.941 0.659-2.777 0.557 0.174 1.15 0.269 1.764 0.269 2.391 0 4.453-1.426 5.386-3.471 2.635 0.712 4.58 3.122 4.58 5.979zM11.367 18.496c-1.014 0-1.839 0.825-1.839 1.839v0.377c0 0.238-0.193 0.431-0.431 0.431s-0.431-0.193-0.431-0.431v-1.759c0-0.563-0.161-1.089-0.438-1.535h6.598c-0.474 0.607-0.757 1.37-0.757 2.198v2.23c0 0.238-0.193 0.431-0.431 0.431s-0.431-0.193-0.431-0.431v-1.51c0-1.014-0.825-1.839-1.839-1.839zM15.796 1.408c2.487 0 4.51 2.023 4.51 4.51s-2.023 4.51-4.51 4.51-4.51-2.023-4.51-4.51 2.023-4.51 4.51-4.51zM6.146 14.343c0-2.756 1.809-5.095 4.302-5.897 0.501 1.056 1.306 1.941 2.301 2.541-0.501 1.013-0.783 2.152-0.783 3.356 0 0.572 0.065 1.129 0.186 1.666h-5.776c-0.148-0.53-0.23-1.089-0.23-1.666zM16 25.1c-5.291 0-9.997-2.983-12.263-7.683 0 0 1.946 0 2.011 0 0.832 0 1.51 0.703 1.51 1.535v1.759c0 1.014 0.825 1.839 1.839 1.839s1.839-0.825 1.839-1.839v-0.377c0-0.238 0.193-0.431 0.431-0.431s0.431 0.193 0.431 0.431v1.51c0 1.014 0.825 1.839 1.839 1.839s1.839-0.825 1.839-1.839v-2.23c0-1.198 0.974-2.198 2.172-2.198h10.615c-2.266 4.701-6.972 7.683-12.263 7.683z"></path>
</svg>
