<!-- Generated by IcoMoon.io -->
<svg version="1.1" xmlns="http://www.w3.org/2000/svg" width="32" height="32" viewBox="0 0 32 32">
<title>smoothies</title>
<path d="M11.313 28.543v-6.056c4.264-0.276 7.648-3.832 7.648-8.164v-0.045c0-0.285-0.223-0.516-0.504-0.532 0.086-0.334 0.13-0.679 0.13-1.032 0-2.18-1.69-3.971-3.829-4.134-0.51-1.751-2.118-2.981-3.979-2.981s-3.471 1.23-3.98 2.981c-2.138 0.163-3.828 1.954-3.828 4.134 0 0.353 0.045 0.698 0.13 1.032-0.281 0.016-0.503 0.247-0.503 0.532v0.045c0 4.332 3.385 7.888 7.648 8.164v6.056c-1.668 0.175-3.148 1.167-3.943 2.675-0.087 0.165-0.082 0.364 0.015 0.524s0.27 0.258 0.457 0.258h8.010c0.187 0 0.36-0.098 0.457-0.258s0.102-0.359 0.015-0.524c-0.795-1.508-2.275-2.499-3.943-2.675zM17.521 12.715c0 0.357-0.060 0.702-0.177 1.030h-5.806c-0.055-0.156-0.1-0.317-0.129-0.481-0.033-0.18-0.049-0.365-0.049-0.549 0-1.678 1.313-3.031 2.991-3.079 0.030-0.001 0.060-0.001 0.090-0.001 1.698 0 3.080 1.382 3.080 3.080zM10.78 6.667c1.297 0 2.429 0.804 2.876 1.976-0.828 0.158-1.588 0.564-2.187 1.18-0.277 0.284-0.507 0.602-0.69 0.943-0.182-0.341-0.413-0.659-0.69-0.943-0.599-0.616-1.359-1.022-2.187-1.18 0.448-1.172 1.58-1.976 2.877-1.976zM7.119 9.634c0.030 0 0.060 0 0.090 0.001 1.677 0.048 2.99 1.4 2.99 3.079 0 0.185-0.017 0.369-0.049 0.55-0.029 0.164-0.073 0.324-0.129 0.48h-5.806c-0.117-0.328-0.176-0.673-0.176-1.030 0-1.699 1.382-3.080 3.080-3.080zM3.682 14.812h14.196c-0.252 3.696-3.339 6.626-7.098 6.626s-6.846-2.93-7.098-6.626zM7.785 30.933c0.748-0.85 1.831-1.351 2.994-1.351s2.246 0.502 2.994 1.351h-5.989z"></path>
<path d="M29.073 1.641l-3.84-1.6c-0.151-0.063-0.323-0.053-0.466 0.027s-0.241 0.222-0.266 0.383l-0.592 3.815h-4.153l-0.686-2.682c-0.073-0.285-0.363-0.458-0.649-0.385s-0.458 0.363-0.385 0.649l0.618 2.417h-3.035c-0.15 0-0.293 0.063-0.394 0.173s-0.151 0.258-0.138 0.408l0.28 3.123c0.026 0.293 0.286 0.51 0.579 0.484s0.51-0.285 0.484-0.579l-0.055-0.619h10.008l-0.326 3.623h-6.698c-0.295 0-0.533 0.239-0.533 0.533s0.239 0.533 0.533 0.533h6.602l-0.115 1.28h-5.918c-0.295 0-0.533 0.239-0.533 0.533s0.239 0.533 0.533 0.533h5.822l-0.253 2.82h-6.233c-0.295 0-0.533 0.239-0.533 0.533s0.239 0.533 0.533 0.533h6.137l-0.207 2.3h-7.683c-0.099-0.184-0.302-0.301-0.524-0.278-0.293 0.030-0.506 0.291-0.477 0.584l0.077 0.753c0.108 1.2 0.656 2.308 1.545 3.12 0.757 0.692 1.705 1.118 2.713 1.23v3.301c-1.225 0.167-2.304 0.911-2.892 2.027-0.087 0.165-0.081 0.364 0.015 0.524s0.27 0.258 0.457 0.258h5.889c0.187 0 0.36-0.098 0.457-0.258s0.102-0.359 0.015-0.524c-0.585-1.11-1.656-1.852-2.873-2.024v-3.304c1.008-0.112 1.956-0.538 2.713-1.229 0.889-0.813 1.438-1.921 1.546-3.12l1.5-16.692c0.013-0.149-0.037-0.297-0.138-0.408s-0.244-0.173-0.394-0.173h-2.151l0.462-2.979 3.212 1.338c0.272 0.113 0.584-0.015 0.698-0.287s-0.015-0.584-0.287-0.698zM23.744 5.333l-0.133 0.857h-3.362l-0.219-0.857h3.714zM16.204 5.333h2.725l0.219 0.857h-2.867l-0.077-0.857zM19.508 30.933c0.504-0.451 1.162-0.711 1.863-0.711s1.359 0.26 1.863 0.711h-3.726zM21.38 24.854c-1.915 0-3.494-1.412-3.717-3.307h7.435c-0.221 1.892-1.801 3.307-3.718 3.307zM26.557 5.333l-0.077 0.857h-1.789l0.133-0.857h1.733z"></path>
</svg>
