<!-- Generated by IcoMoon.io -->
<svg version="1.1" xmlns="http://www.w3.org/2000/svg" width="32" height="32" viewBox="0 0 32 32">
<title>sundaes</title>
<path d="M16.814 8.962c0.622 1.258 1.89 1.988 3.207 1.988 0.531 0 1.070-0.119 1.577-0.37 1.765-0.873 2.491-3.019 1.618-4.784-0.262-0.53-0.642-0.976-1.108-1.313 0.569-0.815 1.307-1.511 2.168-2.034 0.368-0.224 0.486-0.703 0.262-1.072s-0.704-0.486-1.072-0.262c-1.142 0.693-2.106 1.638-2.821 2.748-0.749-0.136-1.519-0.029-2.214 0.315-0.855 0.423-1.494 1.153-1.8 2.057s-0.241 1.872 0.182 2.727zM18.11 6.735c0.172-0.509 0.532-0.92 1.013-1.158 0-0 0-0 0-0 0.237-0.117 0.49-0.186 0.746-0.204-0.036 0.092-0.071 0.184-0.104 0.277-0.145 0.406 0.067 0.852 0.473 0.997s0.852-0.067 0.997-0.473c0.036-0.101 0.074-0.2 0.114-0.299 0.192 0.17 0.35 0.377 0.467 0.613 0.491 0.994 0.083 2.202-0.911 2.694s-2.202 0.083-2.694-0.911c-0.238-0.481-0.274-1.027-0.102-1.535zM22.841 17.418c0.059 0.427-0.239 0.821-0.666 0.88-0.142 0.020-0.289 0.035-0.436 0.045-0.019 0.001-0.037 0.002-0.055 0.002-0.406 0-0.749-0.314-0.777-0.726-0.030-0.43 0.294-0.803 0.724-0.833 0.112-0.008 0.223-0.019 0.331-0.034 0.427-0.059 0.821 0.239 0.88 0.666zM25.328 9.967c0.056 0.274 0.088 0.565 0.096 0.863 0 0.007 0 0.014 0 0.020 0 1.7-0.907 2.999-2.554 3.657-0.76 0.303-1.665 0.456-2.635 0.457-0.773 0-1.586-0.097-2.4-0.293-1.887-0.453-3.553-1.363-4.692-2.561-1.744-1.835-2.099-4.163-0.999-6.558 0.18-0.392 0.643-0.563 1.035-0.383s0.563 0.643 0.383 1.035c-0.839 1.826-0.6 3.452 0.712 4.831 1.394 1.466 3.848 2.375 5.967 2.375 0.745 0 1.449-0.112 2.050-0.353 1.040-0.415 1.569-1.155 1.573-2.198-0.006-0.204-0.028-0.4-0.065-0.583-0.086-0.422 0.187-0.834 0.609-0.92s0.834 0.187 0.92 0.609zM25.877 14.083c-0.357-0.241-0.842-0.147-1.083 0.21s-0.147 0.842 0.21 1.083c0.705 0.475 1.125 1.262 1.125 2.103 0 1.398-1.137 2.534-2.534 2.534h-13.78c-0.004-0-0.007-0-0.010-0-2.169 0-3.933-1.764-3.933-3.933 0-1.126 0.49-2.202 1.343-2.953 0.324-0.284 0.355-0.778 0.071-1.101s-0.778-0.355-1.101-0.071c-1.191 1.047-1.873 2.55-1.873 4.124 0 2.266 1.379 4.216 3.343 5.055 0.013 0.027 0.028 0.053 0.044 0.078l4.231 6.629c0.143 0.225 0.391 0.36 0.658 0.36h3.181v2.235h-3.181c-0.431 0-0.78 0.349-0.78 0.78s0.349 0.78 0.78 0.78h3.942c0.006 0 0.013 0 0.019 0s0.013-0 0.019-0h3.942c0.431 0 0.78-0.349 0.78-0.78s-0.349-0.78-0.78-0.78h-3.181v-2.235h3.181c0.266 0 0.514-0.136 0.658-0.36l4.231-6.629c0.017-0.026 0.031-0.053 0.045-0.080 1.333-0.676 2.249-2.060 2.249-3.655 0-1.361-0.678-2.63-1.813-3.396zM20.080 26.644h-7.067l-3.235-5.069h13.537l-3.235 5.069zM10.076 14.637c-1.683-1.859-2.643-4.273-2.634-6.625 0.008-2.027 0.742-3.909 2.066-5.3 1.468-1.542 3.633-2.478 6.263-2.709 0.236-0.021 0.47 0.068 0.634 0.24s0.24 0.41 0.207 0.646c-0.115 0.818-0.062 1.495 0.162 2.069 0.157 0.401-0.042 0.854-0.443 1.010s-0.854-0.042-1.010-0.443c-0.22-0.564-0.329-1.177-0.328-1.853-4.38 0.727-5.979 3.691-5.99 6.345-0.015 3.797 3.003 8.123 8.626 8.661 0.429 0.041 0.743 0.422 0.702 0.851-0.039 0.404-0.378 0.706-0.776 0.706-0.025 0-0.050-0.001-0.075-0.004-3.754-0.359-6.098-2.153-7.404-3.595zM10.529 18.134c-0.127 0.294-0.415 0.47-0.716 0.47-0.104 0-0.209-0.021-0.31-0.065-1.074-0.465-1.898-1.374-2.263-2.494-0.133-0.41 0.091-0.85 0.5-0.983s0.85 0.091 0.983 0.5c0.226 0.695 0.736 1.258 1.4 1.545 0.395 0.171 0.577 0.631 0.406 1.026z"></path>
</svg>
