<svg xmlns="http://www.w3.org/2000/svg" aria-hidden="true" style="position:absolute;width:0;height:0;overflow:hidden"><defs><symbol id="icon-top-ice-cream" viewBox="0 0 32 32"><path d="M27.497 31.246 20.768 4.028l1.193-.689-.608-1.054-1.589.917-.223.129A7.617 7.617 0 0 0 15.207.265c-1.982-.531-4.051-.258-5.828.767S6.332 3.714 5.8 5.696a7.617 7.617 0 0 0 .489 5.286l-1.804 1.041.608 1.054 1.184-.684 7.046 6.777-.003.004.041.033 13.123 12.622a.608.608 0 0 0 1.012-.584zM6.975 6.011a6.421 6.421 0 0 1 3.012-3.925 6.425 6.425 0 0 1 4.904-.646 6.416 6.416 0 0 1 3.596 2.499L9.268 9.261a4.262 4.262 0 0 1 1.82-5.266.608.608 0 1 0-.608-1.054 5.482 5.482 0 0 0-2.277 6.935l-.863.498a6.417 6.417 0 0 1-.366-4.364zM18.322 22.29l1.155-1.75-1.015-.67-1.031 1.562-2.469-2.375 2.094-2.661-.956-.752-2.019 2.566-2.724-2.62 2.959-3.955-.974-.729-2.868 3.834-3.097-2.979.023-.014 12.273-7.086 6.139 24.832-7.489-7.203z"/></symbol><symbol id="icon-fruit-sorbets" viewBox="0 0 32 32"><path d="M29.919 16.316a.705.705 0 0 0-.582-.307h-2.353a7.562 7.562 0 0 0 .186-1.666c0-3.485-2.357-6.429-5.561-7.323a5.89 5.89 0 0 0 .105-1.102c0-3.263-2.654-5.917-5.917-5.917a5.923 5.923 0 0 0-5.796 7.111c-3.05.989-5.262 3.857-5.262 7.232 0 .572.065 1.129.186 1.666H2.663a.706.706 0 0 0-.656.961 15.01 15.01 0 0 0 5.432 6.863 14.926 14.926 0 0 0 7.857 2.658v4.101h-5.194a.704.704 0 1 0 0 1.408h11.796a.704.704 0 1 0 0-1.408h-5.194v-4.101a14.926 14.926 0 0 0 7.857-2.658 15.01 15.01 0 0 0 5.432-6.863.705.705 0 0 0-.074-.654zm-4.157-1.973c0 .577-.081 1.135-.23 1.666h-11.93a6.157 6.157 0 0 1 .429-4.443 5.925 5.925 0 0 0 7.15-3.202c2.635.712 4.58 3.122 4.58 5.979zm-14.395 4.153a1.841 1.841 0 0 0-1.839 1.839v.377a.431.431 0 0 1-.862 0v-1.759a2.9 2.9 0 0 0-.438-1.535h6.598a3.56 3.56 0 0 0-.757 2.198v2.23a.431.431 0 0 1-.862 0v-1.51a1.841 1.841 0 0 0-1.839-1.839zm4.429-17.088c2.487 0 4.51 2.023 4.51 4.51s-2.023 4.51-4.51 4.51-4.51-2.023-4.51-4.51 2.023-4.51 4.51-4.51zm-9.65 12.935a6.203 6.203 0 0 1 4.302-5.897 5.953 5.953 0 0 0 2.301 2.541 7.549 7.549 0 0 0-.597 5.022H6.376a6.189 6.189 0 0 1-.23-1.666zM16 25.1c-5.291 0-9.997-2.983-12.263-7.683h2.011c.832 0 1.51.703 1.51 1.535v1.759c0 1.014.825 1.839 1.839 1.839s1.839-.825 1.839-1.839v-.377a.431.431 0 0 1 .862 0v1.51c0 1.014.825 1.839 1.839 1.839s1.839-.825 1.839-1.839v-2.23c0-1.198.974-2.198 2.172-2.198h10.615c-2.266 4.701-6.972 7.683-12.263 7.683z"/></symbol><symbol id="icon-chip-flavors" viewBox="0 0 32 32"><path d="M16.302 0h-.605c-4.302 0-7.802 3.5-7.802 7.802v15.961a2.72 2.72 0 0 0 2.717 2.717h3.338v3.865c0 .912.743 1.655 1.655 1.655h.552c.912 0 1.655-.743 1.655-1.655v-3.866h3.575a2.72 2.72 0 0 0 2.717-2.717V7.801c.001-4.302-3.5-7.802-7.802-7.802zm.407 30.345a.552.552 0 0 1-.552.552h-.552a.552.552 0 0 1-.552-.552v-3.862h1.655v3.862zm6.292-6.582c0 .889-.724 1.614-1.614 1.614H10.613a1.616 1.616 0 0 1-1.614-1.614V7.802a6.706 6.706 0 0 1 6.699-6.699h.605a6.707 6.707 0 0 1 6.699 6.699v15.961z"/><path d="M20.577 11.755a.552.552 0 0 0-.552.552v2.721a.96.96 0 0 1-1.92 0v-2.721a.552.552 0 1 0-1.104 0v2.721c0 1.138.926 2.063 2.063 2.063s2.063-.926 2.063-2.063v-2.721a.552.552 0 0 0-.552-.552zM15.327 19.34a.552.552 0 0 0-.552.552v1.512a.96.96 0 0 1-1.92 0v-1.512a.552.552 0 1 0-1.104 0v1.512c0 1.138.926 2.063 2.063 2.063s2.064-.926 2.064-2.063v-1.512a.552.552 0 0 0-.552-.552zM13.581 11.022a2.065 2.065 0 0 0 2.063-2.063V7.447a.552.552 0 1 0-1.104 0v1.512a.96.96 0 0 1-1.92 0V7.447a.552.552 0 1 0-1.104 0v1.512a2.064 2.064 0 0 0 2.063 2.063z"/></symbol><symbol id="icon-sundaes" viewBox="0 0 32 32"><path d="M16.814 8.962a3.575 3.575 0 0 0 4.784 1.618 3.575 3.575 0 0 0 .51-6.097 7.214 7.214 0 0 1 2.168-2.034.78.78 0 1 0-.81-1.334 8.777 8.777 0 0 0-2.821 2.748 3.543 3.543 0 0 0-2.214.315c-.855.423-1.494 1.153-1.8 2.057s-.241 1.872.182 2.727zm1.296-2.227c.172-.509.532-.92 1.013-1.158.237-.117.49-.186.746-.204a9.235 9.235 0 0 0-.104.277.78.78 0 1 0 1.47.524c.036-.101.074-.2.114-.299a2.014 2.014 0 0 1-.444 3.307 2.013 2.013 0 0 1-2.694-.911 1.997 1.997 0 0 1-.102-1.535zm4.731 10.683a.78.78 0 0 1-.666.88c-.142.02-.289.035-.436.045l-.055.002a.78.78 0 0 1-.053-1.559c.112-.008.223-.019.331-.034a.78.78 0 0 1 .88.666zm2.487-7.451c.056.274.088.565.096.863v.02c0 1.7-.907 2.999-2.554 3.657-.76.303-1.665.456-2.635.457a10.31 10.31 0 0 1-2.4-.293c-1.887-.453-3.553-1.363-4.692-2.561-1.744-1.835-2.099-4.163-.999-6.558a.78.78 0 1 1 1.418.652c-.839 1.826-.6 3.452.712 4.831 1.394 1.466 3.848 2.375 5.967 2.375.745 0 1.449-.112 2.05-.353 1.04-.415 1.569-1.155 1.573-2.198a3.466 3.466 0 0 0-.065-.583.78.78 0 0 1 1.529-.311zm.549 4.116a.78.78 0 0 0-.873 1.293 2.536 2.536 0 0 1 1.125 2.103 2.537 2.537 0 0 1-2.534 2.534H9.805a3.937 3.937 0 0 1-3.933-3.933 3.94 3.94 0 0 1 1.343-2.953.78.78 0 0 0-1.03-1.172 5.495 5.495 0 0 0-1.873 4.124 5.502 5.502 0 0 0 3.343 5.055.744.744 0 0 0 .044.078l4.231 6.629c.143.225.391.36.658.36h3.181v2.235h-3.181a.78.78 0 1 0 0 1.56H20.51a.78.78 0 1 0 0-1.56h-3.181v-2.235h3.181a.783.783 0 0 0 .658-.36l4.231-6.629c.017-.026.031-.053.045-.08a4.1 4.1 0 0 0 2.249-3.655c0-1.361-.678-2.63-1.813-3.396zM20.08 26.644h-7.067l-3.235-5.069h13.537l-3.235 5.069zM10.076 14.637c-1.683-1.859-2.643-4.273-2.634-6.625.008-2.027.742-3.909 2.066-5.3C10.976 1.17 13.141.234 15.771.003a.782.782 0 0 1 .841.886c-.115.818-.062 1.495.162 2.069a.78.78 0 1 1-1.453.567 5.018 5.018 0 0 1-.328-1.853c-4.38.727-5.979 3.691-5.99 6.345-.015 3.797 3.003 8.123 8.626 8.661a.78.78 0 1 1-.149 1.553c-3.754-.359-6.098-2.153-7.404-3.595zm.453 3.497a.78.78 0 0 1-1.026.405 4.098 4.098 0 0 1-2.263-2.494.78.78 0 0 1 1.483-.483 2.533 2.533 0 0 0 1.4 1.545.78.78 0 0 1 .406 1.026z"/></symbol><symbol id="icon-smoothies" viewBox="0 0 32 32"><path d="M11.313 28.543v-6.056c4.264-.276 7.648-3.832 7.648-8.164v-.045a.533.533 0 0 0-.504-.532 4.151 4.151 0 0 0-3.699-5.166c-.51-1.751-2.118-2.981-3.979-2.981s-3.471 1.23-3.98 2.981a4.151 4.151 0 0 0-3.698 5.166.532.532 0 0 0-.503.532v.045c0 4.332 3.385 7.888 7.648 8.164v6.056a5.049 5.049 0 0 0-3.943 2.675.532.532 0 0 0 .472.782h8.01a.535.535 0 0 0 .472-.782 5.05 5.05 0 0 0-3.943-2.675zm6.208-15.828c0 .357-.06.702-.177 1.03h-5.806a3.046 3.046 0 0 1-.178-1.03 3.064 3.064 0 0 1 2.991-3.079l.09-.001a3.084 3.084 0 0 1 3.08 3.08zM10.78 6.667c1.297 0 2.429.804 2.876 1.976a4.118 4.118 0 0 0-2.187 1.18 4.176 4.176 0 0 0-.69.943 4.146 4.146 0 0 0-.69-.943 4.118 4.118 0 0 0-2.187-1.18 3.078 3.078 0 0 1 2.877-1.976zM7.119 9.634l.09.001a3.063 3.063 0 0 1 2.99 3.079c0 .185-.017.369-.049.55a2.93 2.93 0 0 1-.129.48H4.215a3.083 3.083 0 0 1 2.904-4.11zm-3.437 5.178h14.196c-.252 3.696-3.339 6.626-7.098 6.626s-6.846-2.93-7.098-6.626zm4.103 16.121c.748-.85 1.831-1.351 2.994-1.351s2.246.502 2.994 1.351H7.784z"/><path d="m29.073 1.641-3.84-1.6a.534.534 0 0 0-.732.41l-.592 3.815h-4.153l-.686-2.682a.534.534 0 0 0-1.034.264l.618 2.417h-3.035a.535.535 0 0 0-.532.581l.28 3.123a.534.534 0 0 0 1.063-.095l-.055-.619h10.008l-.326 3.623h-6.698a.533.533 0 1 0 0 1.066h6.602l-.115 1.28h-5.918a.533.533 0 1 0 0 1.066h5.822l-.253 2.82h-6.233a.533.533 0 1 0 0 1.066h6.137l-.207 2.3h-7.683a.533.533 0 0 0-1.001.306l.077.753a4.797 4.797 0 0 0 1.545 3.12 4.8 4.8 0 0 0 2.713 1.23v3.301a3.852 3.852 0 0 0-2.892 2.027.535.535 0 0 0 .472.782h5.889a.535.535 0 0 0 .472-.782 3.853 3.853 0 0 0-2.873-2.024v-3.304a4.805 4.805 0 0 0 4.259-4.349l1.5-16.692a.537.537 0 0 0-.532-.581h-2.151l.462-2.979 3.212 1.338a.534.534 0 0 0 .411-.985zm-5.329 3.692-.133.857h-3.362l-.219-.857h3.714zm-7.54 0h2.725l.219.857h-2.867l-.077-.857zm3.304 25.6c.504-.451 1.162-.711 1.863-.711s1.359.26 1.863.711h-3.726zm1.872-6.079a3.724 3.724 0 0 1-3.717-3.307h7.435a3.725 3.725 0 0 1-3.718 3.307zm5.177-19.521-.077.857h-1.789l.133-.857h1.733z"/></symbol><symbol id="icon-drinks" viewBox="0 0 32 32"><path d="M27.907 5.003c.248-.316.294-.737.118-1.099s-.535-.586-.937-.586h-3.886a2.198 2.198 0 0 0-.944-1.828l.307-.781A.518.518 0 1 0 21.6.33l-.311.793A2.182 2.182 0 0 0 19 2.489l-.325.83H4.913c-.402 0-.761.225-.937.586s-.131.783.118 1.099l11.388 14.494v8.114a3.356 3.356 0 0 1-3.352 3.352h-1.659a.518.518 0 0 0 0 1.036h11.058a.518.518 0 0 0 0-1.036H19.87a3.356 3.356 0 0 1-3.352-3.352v-8.114L27.906 5.004zm-9.331 4.88c.539 0 .781.104 1.087.235.348.149.743.318 1.495.318.663 0 1.048-.131 1.368-.265l-6.527 8.307-6.527-8.306c.32.133.705.264 1.365.264.751 0 1.145-.169 1.493-.318.305-.131.547-.235 1.085-.235s.779.103 1.085.235c.348.149.742.318 1.494.318s1.146-.169 1.495-.318c.306-.131.547-.235 1.086-.235zm1.388-7.017c.23-.585.893-.874 1.479-.644.455.179.735.627.722 1.096h-2.377l.177-.452zM4.912 4.354l22.177-.001c.002.002.004.006.002.009L23.565 8.85c-.639.024-.999.178-1.32.315-.306.131-.548.235-1.087.235s-.781-.104-1.087-.235a3.627 3.627 0 0 0-.732-.246l1.053-2.682a.518.518 0 1 0-.965-.379l-1.179 3.001c-.546.041-.874.18-1.167.306-.306.131-.547.235-1.086.235s-.779-.103-1.085-.235c-.348-.149-.742-.318-1.494-.318s-1.145.169-1.493.318c-.305.131-.547.235-1.085.235s-.78-.103-1.085-.235c-.32-.137-.68-.291-1.319-.315L4.907 4.361c0-.002.002-.007.006-.007zm12.13 26.609h-2.084A4.427 4.427 0 0 0 16 29.678c.264.492.619.928 1.042 1.285z"/><path d="m17.255 11.387-1.738 4.423a.518.518 0 1 0 .965.379l1.738-4.423a.518.518 0 1 0-.965-.379z"/></symbol></defs></svg>