<?xml version='1.0' encoding='iso-8859-1'?>
<!DOCTYPE svg PUBLIC '-//W3C//DTD SVG 1.1//EN' 'http://www.w3.org/Graphics/SVG/1.1/DTD/svg11.dtd'>
<svg version="1.1" xmlns="http://www.w3.org/2000/svg" viewBox="0 0 460 460" xmlns:xlink="http://www.w3.org/1999/xlink" enable-background="new 0 0 460 460">
  <path d="m430.09,234.547c-1.884-2.765-5.015-4.419-8.36-4.419h-33.828c1.733-7.711 2.671-15.72 2.671-23.947 0-50.098-33.888-92.42-79.943-105.273 0.973-5.138 1.503-10.43 1.503-15.847-0.001-46.903-38.158-85.061-85.062-85.061-46.903,0-85.061,38.158-85.061,85.061 0,5.875 0.6,11.613 1.739,17.157-43.843,14.223-75.637,55.442-75.637,103.963 0,8.227 0.937,16.236 2.671,23.947h-32.512c-3.346,0-6.475,1.654-8.36,4.419-1.885,2.765-2.281,6.282-1.058,9.397 15.689,39.96 42.692,74.073 78.088,98.649 33.466,23.236 72.322,36.345 112.941,38.215v58.956h-74.666c-5.588,0-10.118,4.53-10.118,10.118s4.53,10.118 10.118,10.118h169.568c5.588,0 10.118-4.53 10.118-10.118s-4.53-10.118-10.118-10.118h-74.666v-58.956c40.619-1.87 79.476-14.979 112.942-38.215 35.396-24.576 62.398-58.689 78.088-98.649 1.222-3.115 0.826-6.632-1.058-9.397zm-59.754-28.366c0,8.297-1.167,16.322-3.302,23.947h-171.494c-2.134-7.625-3.302-15.65-3.302-23.947 0-14.347 3.424-27.905 9.479-39.919 8.011,2.507 16.528,3.86 25.355,3.86 34.365,0 64.014-20.496 77.421-49.896 37.881,10.238 65.843,44.881 65.843,85.955zm-206.936,59.694c-14.576,0-26.435,11.858-26.435,26.435v5.419c0,3.418-2.781,6.199-6.199,6.199-3.418,0-6.199-2.781-6.199-6.199v-25.291c0-8.095-2.312-15.657-6.301-22.073h94.851c-6.811,8.727-10.884,19.689-10.884,31.591v32.06c0,3.418-2.781,6.199-6.199,6.199-3.418,0-6.199-2.781-6.199-6.199v-21.707c2.84217e-14-14.576-11.858-26.434-26.435-26.434zm63.671-245.639c35.745,1.06581e-14 64.825,29.08 64.825,64.825s-29.08,64.825-64.825,64.825-64.825-29.08-64.825-64.825 29.081-64.825 64.825-64.825zm-138.722,185.945c-1.42109e-14-39.612 26.008-73.244 61.838-84.772 7.205,15.179 18.769,27.9 33.072,36.531-7.196,14.558-11.256,30.932-11.256,48.241 0,8.228 0.938,16.236 2.673,23.947h-83.026c-2.134-7.625-3.301-15.65-3.301-23.947zm141.651,154.633c-76.052,0-143.705-42.875-176.28-110.45 0,0 27.978,0 28.911,0 11.966,0 21.7,10.107 21.7,22.073v25.291c0,14.576 11.859,26.435 26.435,26.435s26.435-11.859 26.435-26.435v-5.419c0-3.418 2.781-6.199 6.199-6.199 3.418,0 6.199,2.781 6.199,6.199v21.707c0,14.576 11.859,26.435 26.435,26.435 14.576,0 26.435-11.859 26.435-26.435v-32.06c0-17.214 14.005-31.591 31.219-31.591h152.592c-32.574,67.574-100.227,110.449-176.28,110.449z"/>
</svg>
